<svg xmlns="http://www.w3.org/2000/svg" xmlns:xlink="http://www.w3.org/1999/xlink" width="99" height="37" viewBox="0 0 99 37">
    <defs>
        <path id="a" d="M0 0h99v37H0z"/>
        <path id="c" d="M15.042.1H0v14.488h15.042V.101z"/>
    </defs>
    <g fill="none" fill-rule="evenodd">
        <mask id="b" fill="#fff">
            <use xlink:href="#a"/>
        </mask>
        <g mask="url(#b)">
            <path fill="#000" d="M93.12 16.503c-2.423-.76-3.746-1.196-3.746-2.026 0-.911 1.401-1.453 2.899-1.453.78 0 1.554.121 2.256.296 0 0 .02 0 .028.003a2.214 2.214 0 0 0 2.657-1.628l.008-.003.418-1.457a9.71 9.71 0 0 0-.74-.288c-.819-.273-1.86-.503-3.02-.632a16.956 16.956 0 0 0-1.811-.097c-4.875 0-8.022 2.502-8.022 5.84-.043 2.06 1.535 4.052 5.602 5.282 2.303.69 3.466 1.123 3.466 2.022 0 .912-1.326 1.49-3.183 1.49-.635 0-1.339-.091-2.026-.232-.808-.167-2.256-.654-2.256-.654a8.863 8.863 0 0 1-1.001-.452l-.53 1.917s-.096.425-.096.65c0 .983.654 1.82 1.555 2.102l.237.058c1.209.296 2.615.479 4.117.479 5.651 0 8.559-2.455 8.559-5.747-.05-2.61-1.614-4.313-5.37-5.47"/>
            <g transform="translate(0 .204)">
                <mask id="d" fill="#fff">
                    <use xlink:href="#c"/>
                </mask>
                <path fill="#000" d="M11.583.1a.991.991 0 0 0-.994.947c0 .017-.005.027-.005.043 0 .082.013.164.032.242l.511 4.924h2.38c.483 0 .884-.342.98-.79a.915.915 0 0 0 .019-.203L15.042.1h-3.459zM8.15 5.646L4.835 1.62 2.388 4.04a.982.982 0 0 0-.021 1.366.11.11 0 0 0 .02.032.982.982 0 0 0 .198.148L6.468 8.71 8.15 7.047a.979.979 0 0 0 .125-1.246.983.983 0 0 0-.125-.156zm-2.727 5.079a1.148 1.148 0 0 0-.202-.02l-5.22-.529v3.42c0 .535.427.967.96.986.01.004.027.007.044.007a.92.92 0 0 0 .244-.033l4.973-.504v-2.357a.995.995 0 0 0-.8-.97z" mask="url(#d)"/>
            </g>
            <path fill="#000" d="M41.122 11.24c-1.272-1.192-2.827-1.823-4.642-1.92-1.815-.094-3.544.39-5.179 1.465v-.056a.997.997 0 0 0-1.001-.993h-4.146v17.729h2.923c1.228 0 2.224-.984 2.224-2.2v-8.618c0-.793.303-1.48.918-2.06.613-.585 1.421-.87 2.418-.87 1 0 1.809.308 2.42.94.617.627.929 1.316.96 2.061v10.747h2.802c1.23 0 2.227-.984 2.227-2.2v-8.408c0-2.56-.643-4.432-1.924-5.617M76.93 18.774c-.03 1.89-.388 3.13-1.074 3.732-.693.608-1.42.9-2.192.877-.766-.023-1.816-.526-3.147-1.504v-6.903c1.177-.842 2.228-1.25 3.147-1.228.924.024 1.7.395 2.345 1.115.638.725.946 2.03.92 3.911m5.137-.596c-.123-3.44-.92-5.79-2.375-7.044-1.455-1.262-3.02-1.89-4.683-1.89-1.66 0-3.16.516-4.491 1.541v-.056a1 1 0 0 0-1.005-.993h-4.14v26.702l3.665-1.69.248-.117a2.328 2.328 0 0 0 1.232-2.05v-6.373c.874 1.025 2.275 1.55 4.216 1.574 1.955.019 3.69-.712 5.223-2.202 1.54-1.492 2.241-3.953 2.11-7.402M51.59 23.208c-.592-.417-.866-1.014-.842-1.78.027-.765.369-1.333 1.035-1.71.664-.37 1.486-.535 2.449-.483.978.034 1.979.318 2.999.828v2.097c-.974 1.024-2.006 1.558-3.11 1.6-1.098.056-1.946-.135-2.531-.552m8.368-12.46c-1.508-.953-3.516-1.41-6.02-1.36a15.638 15.638 0 0 0-2.9.313 14.103 14.103 0 0 0-3.942 1.433l.922 1.54.05.082a2.22 2.22 0 0 0 2.644.958c.015-.004.032-.007.044-.013a9.303 9.303 0 0 1 2.638-.51c1.536-.065 2.558.13 3.07.597.51.463.767 1.001.767 1.601v.978c-.56-.413-1.781-.652-3.648-.698a11.18 11.18 0 0 0-5.333 1.188c-1.68.834-2.57 2.269-2.65 4.287-.07 2.024.58 3.634 1.96 4.818 1.39 1.188 3.014 1.796 4.912 1.82 1.892.019 3.478-.507 4.759-1.574v.004a2.374 2.374 0 0 0 2.095 1.253h2.894V15.6c0-2.279-.756-3.89-2.262-4.85M18.522 16.503c-2.422-.76-3.745-1.196-3.745-2.026 0-.911 1.404-1.453 2.899-1.453.776 0 1.556.121 2.256.296 0 0 .015 0 .03.003.159.036.325.06.498.06 1.048 0 1.928-.721 2.163-1.688l.004-.003.416-1.457a9.333 9.333 0 0 0-.74-.288c-.819-.273-1.858-.503-3.02-.632a17.013 17.013 0 0 0-1.809-.097c-4.881 0-8.029 2.502-8.029 5.84-.038 2.06 1.542 4.052 5.614 5.282 2.299.69 3.457 1.123 3.457 2.022 0 .912-1.324 1.49-3.184 1.49-.634 0-1.334-.091-2.023-.232-.808-.167-2.26-.654-2.26-.654a9.077 9.077 0 0 1-.995-.452l-.532 1.917s-.096.425-.096.65c0 .983.656 1.82 1.555 2.102.08.019.16.038.237.058 1.211.296 2.615.479 4.114.479 5.652 0 8.562-2.455 8.562-5.747-.051-2.61-1.614-4.313-5.372-5.47"/>
        </g>
    </g>
</svg>
